<?xml version="1.0" encoding="utf-8"?>
<!-- Generator: Adobe Illustrator 24.1.2, SVG Export Plug-In . SVG Version: 6.00 Build 0)  -->
<svg version="1.1" id="Layer_1" xmlns="http://www.w3.org/2000/svg" xmlns:xlink="http://www.w3.org/1999/xlink" x="0px" y="0px"
	 viewBox="0 0 1366 768" style="enable-background:new 0 0 1366 768;" xml:space="preserve">
<style type="text/css">
	.st0{fill:#313131;}
	.st1{fill:#FEB701;}
	.st2{fill:#FFFFFF;}
</style>
<g>
	<path d="M620.8,404.3l-50.7-177.4c-1.1-3.8,1.8-7.6,5.8-7.6H877c2.7,0,5.1,1.8,5.8,4.5l48.6,184.7L620.8,404.3z"/>
	<path d="M604.6,411.5l-54.1-108.2c-2-4,0.9-8.7,5.4-8.7h95.5c2.3,0,4.4,1.3,5.4,3.4l55.4,113.5H604.6z"/>
	<path class="st0" d="M882.8,398.6l50.4-100.7c1-2,3.1-3.3,5.4-3.3h95.6c4.5,0,7.4,4.7,5.4,8.7l-47.7,95.4L882.8,398.6L882.8,398.6z
		"/>
	<path d="M1034.1,294.6h-28.3c4.5,0,7.4,4.7,5.4,8.7l-48.6,95l29.2,0.3l47.7-95.4C1041.4,299.3,1038.5,294.6,1034.1,294.6z"/>
	<path d="M589.7,615.3V380.8h150.9v249H604.2C596.2,629.8,589.7,623.3,589.7,615.3z"/>
	<path class="st0" d="M697.5,629.8v-249h302.9v234.5c0,8-6.5,14.5-14.5,14.5H697.5z"/>
	<path d="M971.5,380.8v234.5c0,8-6.5,14.5-14.5,14.5h28.9c8,0,14.5-6.5,14.5-14.5V380.8H971.5z"/>
	<path class="st1" d="M794.5,380.8h98.1v113.9c0,8.1-8.1,13.6-15.6,10.6l-38.8-15.5l-27.2,13.6c-7.6,3.8-16.5-1.7-16.5-10.2V380.8
		L794.5,380.8z"/>
	<path class="st1" d="M863.7,380.8v113.9c0,1.8-0.4,3.4-1.1,4.9l14.3,5.7c7.5,3,15.6-2.5,15.6-10.6V380.8H863.7z"/>
	<path class="st2" d="M1048.2,289c-1.5-1.3-3.5-1.9-5.5-1.9H935.3c-3.1,0-6,1.8-7.4,4.6l-11.8,23.5c-0.1,0.2-0.4,0.2-0.4,0
		L889,217.6c-1-3.5-4.2-6-7.8-6H568.9c-1.8,0-3.6,0.5-5,1.5c-2.8,2.1-4,5.6-3.1,8.8l18.5,64.9c0,0.1-0.1,0.3-0.2,0.3h-31.8
		c-2,0-4,0.6-5.5,1.9c-2.9,2.5-3.6,6.5-2,9.8l42.2,84.5c0,0,0,0.1,0,0.1v245.7c0,4.6,3.7,8.3,8.3,8.3h409.2c4.6,0,8.3-3.7,8.3-8.3
		V383.3c0,0,0-0.1,0-0.1l42.2-84.5C1051.8,295.5,1051.1,291.5,1048.2,289z M595.1,373.2l-34.8-69.6c-0.1-0.1,0-0.3,0.2-0.3H590
		c0,0,0,0,0,0h59.7c0.1,0,0.2,0,0.2,0.1l34.8,69.6c0.1,0.1,0,0.3-0.2,0.3h-89.2C595.2,373.3,595.2,373.3,595.1,373.2z M689.9,621
		c0,0.1-0.1,0.2-0.2,0.2h-91.2c-0.1,0-0.2-0.1-0.2-0.2V389.7c0-0.1,0.1-0.2,0.2-0.2h91.2c0.1,0,0.2,0.1,0.2,0.2L689.9,621L689.9,621
		z M991.7,621c0,0.1-0.1,0.2-0.2,0.2H706.3c-0.1,0-0.2-0.1-0.2-0.2V389.7c0-0.1,0.1-0.2,0.2-0.2h22.5c4.5,0,8.1-3.6,8.1-8.1
		c0-4.5-3.6-8.1-8.1-8.1h-25.7c-0.1,0-0.2,0-0.2-0.1l-40.8-81.5c-1.4-2.8-4.3-4.6-7.4-4.6h-58.3c-0.1,0-0.2-0.1-0.2-0.2l-16.8-58.8
		c0-0.1,0.1-0.3,0.2-0.3h295.2c0.1,0,0.2,0.1,0.2,0.2l29.8,109.4c0,0.1,0,0.1,0,0.2l-17.8,35.7c0,0.1-0.1,0.1-0.2,0.1H764.5
		c-4.5,0-8.1,3.6-8.1,8.1c0,4.5,3.6,8.1,8.1,8.1h22.2c0.1,0,0.2,0.1,0.2,0.2v120.8c0,2,0.6,4,1.9,5.5c2.5,2.9,6.5,3.6,9.8,2
		l39.8-19.9c0.1,0,0.1,0,0.2,0l50.4,20.2c1,0.4,2,0.6,3,0.6c2.4,0,4.8-1.1,6.4-3.2c1.1-1.5,1.7-3.3,1.7-5.2V389.7
		c0-0.1,0.1-0.2,0.2-0.2h91.2c0.1,0,0.2,0.1,0.2,0.2L991.7,621L991.7,621z M883.9,389.7v108.8c0,0.2-0.2,0.3-0.3,0.2l-42.5-17
		c-1-0.4-2-0.6-3-0.6c-1.2,0-2.5,0.3-3.6,0.9l-31.1,15.5c-0.1,0.1-0.3,0-0.3-0.2V389.7c0-0.1,0.1-0.2,0.2-0.2h80.4
		C883.8,389.5,883.9,389.6,883.9,389.7z M1029.7,303.6l-34.8,69.6c0,0.1-0.1,0.1-0.2,0.1h-89.2c-0.2,0-0.3-0.2-0.2-0.3l34.8-69.6
		c0-0.1,0.1-0.1,0.2-0.1h89.2C1029.6,303.2,1029.7,303.4,1029.7,303.6z"/>
</g>
</svg>
